<svg xmlns="http://www.w3.org/2000/svg" width="24" height="24" viewBox="0 0 24 24">
    <path data-name="Heart - 192x192" d="M11.464 19.458a2.856 2.856 0 0 1-2.033-.842l-5.3-5.3a5.686 5.686 0 0 1 4.02-9.709 5.644 5.644 0 0 1 3.313 1.063 5.687 5.687 0 0 1 7.336 8.644l-5.3 5.3a2.856 2.856 0 0 1-2.036.844zM8.151 5.607A3.686 3.686 0 0 0 5.544 11.9l5.3 5.3a.875.875 0 0 0 1.237 0l5.3-5.3a3.686 3.686 0 0 0-5.213-5.213 1 1 0 0 1-1.414 0 3.662 3.662 0 0 0-2.603-1.08z" transform="translate(.535 .699)" style="fill:#dee2e6"/>
    <path style="fill:none" d="M0 0h24v24H0z"/>
</svg>
